<svg width="71" height="32" viewBox="0 0 71 32" fill="none" xmlns="http://www.w3.org/2000/svg">
<path d="M42.1305 19.6831C40.2295 23.9203 33.9695 24.5085 31.1181 24.5412L31.8282 22.3191C33.456 22.0577 36.0016 20.9793 37.1924 16.9926C38.0445 14.1279 36.5915 14.4656 35.0511 14.4656H32.9972L30.3533 22.3627L29.5886 24.7699L28.7036 27.3515C28.5398 27.7981 28.3431 28.0486 27.928 28.3427C27.4473 28.6804 27.0649 28.8002 26.4422 28.8002H22.3999L27.633 13.0277C27.7969 12.6138 28.2011 12.1781 28.6053 11.8949C29.0532 11.579 29.4575 11.5028 29.8945 11.5028C29.8945 11.5028 33.5762 11.481 33.5325 11.5137C32.3744 12.3306 31.5988 13.2674 31.3366 14.4764H32.0467C32.8224 13.0059 34.7561 11.5246 37.5857 11.5246C39.6505 11.5246 41.759 12.091 42.6658 13.7466L43.4087 11.4919H46.9156C47.2106 10.6423 47.2652 10.4353 47.3526 10.1739C47.3526 10.1957 54.1152 7.2002 54.1152 7.2002L52.7387 11.5246H55.9834C56.2893 10.6749 56.3221 10.4571 56.4095 10.1957C56.4095 10.2174 63.183 7.22198 63.183 7.22198L61.7846 11.5354H64.7999L63.8713 14.4438H60.856C60.856 14.4438 59.25 19.3236 58.8785 20.4238C58.3214 22.0904 58.8785 22.4716 60.7904 22.4716C60.7795 22.4171 60.1131 24.5085 60.1131 24.5085C60.1131 24.5085 56.5843 24.5194 55.5246 24.5085C53.6345 24.4758 52.1487 23.2668 52.837 21.0991C53.274 19.7376 55.0657 14.4438 55.0657 14.4438H51.821C51.821 14.4438 50.2041 19.3236 49.8436 20.4238C49.2864 22.0904 49.8436 22.4716 51.7554 22.4716C51.7445 22.4171 51.0672 24.5085 51.0672 24.5085H46.4896C44.4903 24.5085 43.081 23.3212 43.8348 21.0773C44.2936 19.7267 46.0198 14.4438 46.0198 14.4438H42.9826C43.3432 15.6637 43.1793 17.363 42.1305 19.6831Z" fill="white"/>
<path d="M12.8639 0.0876049C12.8639 0.0876049 12.44 1.23742 12.44 2.32152C12.44 3.42753 12.9698 4.51163 13.7964 5.7819C14.7078 7.15072 15.7252 8.30053 17.1664 10.0198C17.887 10.8849 18.65 11.9252 19.3388 13.1845C20.5681 15.4184 21.0768 18.3094 20.6529 20.3462C20.1548 22.7443 19.4872 24.2884 17.5903 26.0624C14.8456 28.6357 10.8186 28.8 10.8186 28.8V27.913C10.8186 27.913 14.1991 27.8035 16.2868 24.8797C18.0354 22.4268 17.7386 19.8753 17.4737 18.6707C17.0922 16.9296 16.2656 15.9769 14.9092 14.4657C13.2136 12.5932 11.3803 10.3483 11.1259 7.54494C10.8928 4.92776 11.5922 3.07711 12.8321 0L12.8639 0.0876049ZM7.93613 0.0876049C7.93613 0.0876049 8.34942 1.23742 8.34942 2.32152C8.34942 3.42753 7.83015 4.51163 6.99296 5.7819C6.0816 7.15072 5.06425 8.30053 3.63362 10.0198C2.913 10.8849 2.14999 11.9252 1.46117 13.1845C0.231877 15.4184 -0.276794 18.3094 0.147099 20.3462C0.645172 22.7443 1.3128 24.2884 3.20972 26.0624C5.95443 28.6357 9.98141 28.8 9.98141 28.8V27.913C9.98141 27.913 6.60086 27.8035 4.5026 24.8797C2.75404 22.4268 3.05076 19.8753 3.3157 18.6707C3.6972 16.9296 4.52379 15.9769 5.88025 14.4657C7.57582 12.5932 9.40915 10.3483 9.66349 7.54494C9.89663 4.92776 9.19721 3.07711 7.95732 0L7.93613 0.0876049Z" fill="white"/>
<path fill-rule="evenodd" clip-rule="evenodd" d="M15.2782 15.4814C14.0471 14.2964 12.5354 12.4264 11.9306 11.437C10.8616 9.67579 10.5916 8.12109 10.5916 8.12109C10.5916 8.12109 10.3109 9.67579 9.23103 11.437C8.22678 13.0896 6.43423 14.9487 5.84032 15.5467C4.63089 16.7752 3.875 18.4712 3.875 20.3412C3.875 24.0703 6.87697 27.1036 10.5916 27.1036C14.3063 27.1036 17.3191 24.0812 17.3191 20.3412C17.3191 18.4277 16.5416 16.6991 15.2782 15.4814ZM10.5913 25.8755C13.6257 25.8755 16.0877 23.3967 16.0877 20.3417C16.0877 17.2866 13.6257 14.8078 10.5913 14.8078C7.55693 14.8078 5.09488 17.2866 5.09488 20.3417C5.09488 23.3967 7.55693 25.8755 10.5913 25.8755Z" fill="white"/>
</svg>
