<svg width="46" height="46" viewBox="0 0 46 46" fill="none" xmlns="http://www.w3.org/2000/svg">
<path d="M41.75 0.5H4.25C3.25544 0.5 2.30161 0.895088 1.59835 1.59835C0.895088 2.30161 0.5 3.25544 0.5 4.25V41.75C0.5 42.7446 0.895088 43.6984 1.59835 44.4016C2.30161 45.1049 3.25544 45.5 4.25 45.5H41.75C42.7446 45.5 43.6984 45.1049 44.4016 44.4016C45.1049 43.6984 45.5 42.7446 45.5 41.75V4.25C45.5 3.25544 45.1049 2.30161 44.4016 1.59835C43.6984 0.895088 42.7446 0.5 41.75 0.5ZM31.8266 22.4516C31.6524 22.6259 31.4456 22.7642 31.218 22.8585C30.9904 22.9529 30.7464 23.0015 30.5 23.0015C30.2536 23.0015 30.0096 22.9529 29.782 22.8585C29.5544 22.7642 29.3476 22.6259 29.1734 22.4516L24.875 18.1508V32.375C24.875 32.8723 24.6775 33.3492 24.3258 33.7008C23.9742 34.0525 23.4973 34.25 23 34.25C22.5027 34.25 22.0258 34.0525 21.6742 33.7008C21.3225 33.3492 21.125 32.8723 21.125 32.375V18.1508L16.8266 22.4516C16.4747 22.8034 15.9976 23.001 15.5 23.001C15.0024 23.001 14.5253 22.8034 14.1734 22.4516C13.8216 22.0997 13.624 21.6226 13.624 21.125C13.624 20.6274 13.8216 20.1503 14.1734 19.7984L21.6734 12.2984C21.8476 12.1241 22.0544 11.9858 22.282 11.8915C22.5096 11.7971 22.7536 11.7485 23 11.7485C23.2464 11.7485 23.4904 11.7971 23.718 11.8915C23.9456 11.9858 24.1524 12.1241 24.3266 12.2984L31.8266 19.7984C32.0009 19.9726 32.1392 20.1794 32.2336 20.407C32.3279 20.6346 32.3765 20.8786 32.3765 21.125C32.3765 21.3714 32.3279 21.6154 32.2336 21.843C32.1392 22.0706 32.0009 22.2774 31.8266 22.4516Z" fill="#009FE0"/>
</svg>
