<svg width="25" height="24" viewBox="0 0 25 24" fill="none" xmlns="http://www.w3.org/2000/svg">
<g clip-path="url(#clip0_2714_2187)">
<path d="M6.875 18H15.9528C16.3041 17.9999 16.6442 17.8766 16.9139 17.6515C17.1835 17.4264 17.3656 17.1137 17.4284 16.7681L19.82 3.61594C19.8514 3.44313 19.9424 3.28681 20.0773 3.17425C20.2121 3.06169 20.3822 3.00003 20.5578 3H22.25" stroke="white" stroke-width="2" stroke-linecap="round" stroke-linejoin="round"/>
<path d="M15.875 21.75C14.8395 21.75 14 20.9105 14 19.875C14 18.8395 14.8395 18 15.875 18C16.9105 18 17.75 18.8395 17.75 19.875C17.75 20.9105 16.9105 21.75 15.875 21.75Z" stroke="white" stroke-width="2" stroke-linecap="round" stroke-linejoin="round"/>
<path d="M6.875 21.75C5.83947 21.75 5 20.9105 5 19.875C5 18.8395 5.83947 18 6.875 18C7.91053 18 8.75 18.8395 8.75 19.875C8.75 20.9105 7.91053 21.75 6.875 21.75Z" stroke="white" stroke-width="2" stroke-linecap="round" stroke-linejoin="round"/>
<path d="M17.8859 14.25H6.11562C5.76434 14.2499 5.42422 14.1266 5.15456 13.9015C4.88489 13.6764 4.70279 13.3637 4.64 13.0181L3.5 6.75H19.25" stroke="white" stroke-width="2" stroke-linecap="round" stroke-linejoin="round"/>
</g>
<defs>
<clipPath id="clip0_2714_2187">
<rect width="24" height="24" fill="white" transform="translate(0.5)"/>
</clipPath>
</defs>
</svg>
