<svg width="100" height="100" viewBox="0 0 100 100" fill="none" xmlns="http://www.w3.org/2000/svg">
<path d="M93.9684 5.22825C94.1711 5.22269 94.4079 5.19592 94.6037 5.25421L94.6536 5.27034L94.9221 5.36434C95.3572 5.55943 95.7696 5.98683 95.9232 6.44165C96.1096 6.99367 96.0272 7.69878 96.0269 8.27537C96.0265 9.09078 96.034 9.90629 96.0376 10.7217C96.0534 14.297 96.0411 17.8728 96.0398 21.4481C96.0343 37.1622 96.0074 52.875 96.0118 68.5889C96.0127 71.8735 96.0258 75.1582 96.0007 78.4425C95.9912 79.6759 96.108 80.977 95.9885 82.2022C95.9751 82.3398 95.9478 82.4699 95.8849 82.5942C95.7176 82.9248 95.3504 83.2462 95.0178 83.3952C94.7204 83.5284 94.3763 83.5546 94.0603 83.6268C93.7024 83.7085 93.354 83.8248 93.0056 83.9393C90.894 84.6324 88.8004 85.3751 86.6964 86.0908C81.9859 87.6929 77.2695 89.2754 72.5605 90.8828C71.1109 91.3775 69.649 91.8566 68.207 92.3712C67.8388 92.5026 67.4761 92.6502 67.1145 92.7984C66.9318 92.8733 66.7159 92.9879 66.5243 93.0229C66.416 93.0426 66.2438 92.9793 66.1347 92.9515C65.8354 92.8751 65.5345 92.8024 65.2346 92.7286C63.5518 92.3143 61.8776 91.8882 60.2022 91.4458C53.0778 89.5645 45.9668 87.6335 38.8384 85.7691C37.9179 85.5284 36.9965 85.2791 36.0842 85.0089C35.8316 84.9341 35.58 84.8556 35.3279 84.7793C35.2681 84.7613 35.1329 84.7002 35.0816 84.7048C34.9386 84.7177 34.6929 84.8476 34.5518 84.9001C34.0792 85.0761 33.606 85.2499 33.1313 85.4202C31.9806 85.8328 30.8166 86.2154 29.6589 86.6082C23.9574 88.5432 18.2667 90.5096 12.5716 92.4627C11.1666 92.9447 9.74989 93.4031 8.34984 93.8973C7.64452 94.1463 6.95387 94.4341 6.24295 94.6664C5.7973 94.7766 5.38914 94.7661 4.9807 94.539C4.56521 94.308 4.20497 93.8445 4.09252 93.3805C4.0071 93.0282 4.02629 92.6126 4.02472 92.2504C4.02209 91.6362 4.02581 91.0218 4.02517 90.4076C4.02302 88.3199 4.01787 86.2322 4.01512 84.1445C4.00299 74.9403 4.03059 65.7361 4.02471 56.5319C4.01915 47.7996 4.03357 39.0673 4.02269 30.3351C4.01921 27.5434 4.02808 24.7517 4.02701 21.96C4.02669 21.1382 4.02312 20.3166 4.01491 19.495C4.01037 19.0406 3.97459 18.5555 4.01932 18.1043C4.04314 17.864 4.10654 17.6205 4.23731 17.4148C4.44511 17.088 4.74257 16.8668 5.10171 16.7289C5.68603 16.5045 6.30975 16.3536 6.9047 16.1526C8.50868 15.6106 10.1085 15.0593 11.719 14.5366C15.6252 13.2687 19.5225 11.9668 23.414 10.6542C25.9745 9.79067 28.5422 8.94594 31.1002 8.07629C31.6387 7.89325 32.1822 7.71885 32.7151 7.52061C33.0984 7.37806 33.5118 7.15379 33.9114 7.08354C34.1873 7.03501 34.4796 7.09606 34.747 7.15917C39.3224 8.23885 43.849 9.54255 48.4164 10.6567C50.623 11.195 52.8205 11.7773 55.0295 12.3016C56.7255 12.7042 58.4775 13.0175 60.1393 13.539C61.474 13.9578 62.8184 14.5444 63.9768 15.3335L93.9684 5.22825ZM92.3316 9.59457L66.9384 18.0304C67.5549 18.6509 68.0034 19.3355 68.4433 20.0876C69.7452 22.3134 70.473 24.8605 70.4611 27.4458C70.4511 29.6206 69.7898 31.9248 68.9998 33.9378C68.8967 34.2007 67.9526 36.2081 67.9703 36.3185C68.0719 36.9492 68.051 37.6243 68.0564 38.2631C68.0648 39.274 68.0629 40.2849 68.0634 41.2957C68.0648 44.4898 68.0675 47.6837 68.0653 50.8778C68.0608 57.3235 68.0936 63.769 68.0874 70.2147C68.0827 75.2194 68.0404 80.2246 68.0487 85.2293L68.0435 88.5607L92.4099 80.2399C92.4751 72.7598 92.4392 65.276 92.4405 57.7958C92.4419 48.2465 92.4694 38.6977 92.4588 29.1486C92.4538 24.5405 92.4318 19.9327 92.4416 15.3246C92.4446 13.9738 92.4506 12.623 92.4528 11.2722C92.4536 10.7514 92.5219 10.1116 92.4376 9.6024L92.3316 9.59457Z" fill="#00649F"/>
<path d="M55.7724 16.378L55.8232 16.3721C58.4602 16.1387 61.2677 17.2131 63.3004 18.8375C65.5442 20.6305 66.8086 23.2836 67.1039 26.1125C67.2686 27.6904 67.0058 29.297 66.575 30.8125C66.1792 32.2044 65.6715 33.5729 65.0557 34.8836C64.7471 35.5405 64.3897 36.1729 64.0548 36.8165C62.8495 39.1324 61.4906 41.3147 60.0229 43.4724C58.8849 45.1454 57.7277 46.7647 56.4586 48.343L56.1423 48.7246C52.9855 44.5702 50.009 40.2492 47.7311 35.5414C46.5684 33.138 45.4685 30.458 45.2716 27.7709C45.0645 24.9475 46.0611 22.2533 47.8958 20.1302C49.9186 17.7892 52.7337 16.603 55.7724 16.378Z" fill="#009FE0"/>
<path d="M55.8387 19.8445C57.6803 19.7484 59.5466 20.3152 61.0138 21.4358C62.5475 22.6072 63.5958 24.4834 63.8326 26.3958C64.093 28.4977 63.4629 30.5711 62.1547 32.2293C60.8059 33.9393 58.8042 34.8686 56.6802 35.1122C54.8088 35.2246 52.8956 34.6047 51.4408 33.425C49.7469 32.0515 48.6474 30.0228 48.4543 27.8465C48.2903 25.9975 48.9221 24.0367 50.1248 22.6242C51.6132 20.8763 53.581 20.0262 55.8387 19.8445Z" fill="white"/>
<path d="M35.4989 11.0597C35.6988 11.0315 35.9312 11.1425 36.1244 11.1992C36.5599 11.327 36.9978 11.452 37.4377 11.5638C40.3467 12.3033 43.255 13.0539 46.169 13.7734C47.3871 14.0742 48.6253 14.4878 49.8623 14.676C47.3388 16.0262 45.1543 18.0362 43.7938 20.5765C42.5902 22.8233 41.8451 25.3865 41.9545 27.9516C42.0156 29.3848 42.3446 30.8006 42.7598 32.1692C43.9376 36.0523 45.8392 39.6524 47.9912 43.0747C49.5854 45.61 51.2758 48.0146 53.1255 50.3693C53.5657 50.9297 54.0203 51.4752 54.4776 52.0215C54.7784 52.3807 55.1224 52.8779 55.5512 53.0882C55.8949 53.2568 56.3547 53.2512 56.7106 53.1248C56.8324 53.0815 56.9431 53.0225 57.0392 52.9354C57.4578 52.5564 57.8246 52.0242 58.1816 51.5849C58.8856 50.7184 59.5404 49.822 60.2056 48.9259C60.862 48.0414 61.5318 47.1706 62.1446 46.2544C63.0487 44.9023 64.0331 43.5035 64.7 42.0172L64.6935 69.7999L64.6701 88.8618L35.4976 81.0274L35.4989 11.0597Z" fill="#F3FAFF"/>
<path d="M92.3312 9.59473L92.4372 9.60255C92.5215 10.1117 92.4531 10.7516 92.4523 11.2724C92.4502 12.6231 92.4441 13.9739 92.4412 15.3247C92.4313 19.9328 92.4533 24.5406 92.4584 29.1487C92.4689 38.6979 92.4415 48.2467 92.44 57.796C92.4388 65.2762 92.4747 72.76 92.4095 80.24L68.0431 88.5608L68.0482 85.2295C68.0399 80.2247 68.0822 75.2195 68.087 70.2148C68.0932 63.7691 68.0604 57.3236 68.0648 50.8779C68.0671 47.6839 68.0644 44.4899 68.063 41.2959C68.0625 40.2851 68.0644 39.2741 68.056 38.2633C68.0506 37.6244 68.0715 36.9493 67.9699 36.3187C67.9521 36.2083 68.8963 34.2009 68.9994 33.938C69.7894 31.925 70.4507 29.6208 70.4606 27.446C70.4726 24.8606 69.7447 22.3136 68.4429 20.0878C68.0029 19.3356 67.5545 18.6511 66.938 18.0306L92.3312 9.59473ZM78.759 53.731C75.9892 54.0008 73.393 55.3455 71.6219 57.5187C70.103 59.3823 69.3355 61.8765 69.5899 64.2706C69.894 67.1322 71.4756 69.8129 72.9963 72.2005C74.0752 73.8945 75.2161 75.5114 76.4675 77.0837C76.8965 77.6228 77.3366 78.1473 77.7872 78.668C78.0894 79.0172 78.3944 79.3857 78.7532 79.678C79.0468 79.9172 79.3625 80.0147 79.7412 79.9675C79.9408 79.9426 80.1297 79.8855 80.3106 79.7991C80.8106 79.3874 81.2167 78.8615 81.6404 78.3736C82.8671 76.9613 83.9832 75.4544 85.0493 73.918C86.2372 72.2062 87.3924 70.3976 88.2733 68.5059C88.9139 67.1304 89.4402 65.6289 89.5948 64.1113C89.8441 61.6629 89.0451 59.249 87.4766 57.3617C85.8183 55.3664 83.3649 53.9865 80.7671 53.7609L78.759 53.731Z" fill="#F3FAFF"/>
<path d="M78.7591 53.731L80.7672 53.7609C83.365 53.9865 85.8183 55.3664 87.4766 57.3617C89.0452 59.249 89.8442 61.6629 89.5949 64.1113C89.4403 65.6289 88.914 67.1304 88.2734 68.5059C87.3925 70.3976 86.2373 72.2062 85.0494 73.918C83.9833 75.4544 82.8672 76.9613 81.6405 78.3736C81.2168 78.8615 80.8107 79.3874 80.3107 79.7991C80.1298 79.8855 79.9409 79.9426 79.7413 79.9675C79.3626 80.0146 79.0469 79.9172 78.7533 79.678C78.3945 79.3857 78.0894 79.0172 77.7873 78.668C77.3367 78.1473 76.8966 77.6228 76.4676 77.0837C75.2162 75.5114 74.0753 73.8945 72.9964 72.2005C71.4757 69.8129 69.8941 67.1322 69.59 64.2706C69.3356 61.8765 70.1031 59.3823 71.622 57.5187C73.393 55.3455 75.9892 54.0008 78.7591 53.731ZM78.8925 57.4402C77.7147 57.6128 76.7565 57.9813 75.7854 58.6797C74.6113 59.524 73.7152 61.0991 73.4862 62.5244C73.3328 63.4795 73.4366 64.531 73.7266 65.4509C74.1902 66.921 75.0676 68.2937 75.8745 69.597C76.8911 71.2388 77.9695 72.8729 79.1186 74.4257L79.6318 75.1027L79.9376 74.6804C80.9794 73.2705 81.978 71.8215 82.9285 70.3485C83.9004 68.8426 84.926 67.2281 85.4494 65.5029C85.7566 64.4905 85.8649 63.4914 85.7011 62.4425C85.4494 60.8329 84.4079 59.3988 83.1011 58.4687C81.8749 57.5961 80.37 57.3196 78.8943 57.4396L78.8925 57.4402Z" fill="#00649F"/>
<path d="M79.4197 60.9992C80.005 60.9462 80.5751 61.0786 81.0828 61.3736C81.647 61.7013 82.0937 62.2891 82.2561 62.9183C82.4386 63.6249 82.3819 64.4841 81.9907 65.112C81.5264 65.8575 80.9123 66.2707 80.0658 66.467C79.3802 66.538 78.7718 66.4042 78.1952 66.0236C77.5557 65.6017 77.1778 64.9782 77.0302 64.2334C76.8861 63.5063 77.0563 62.716 77.4865 62.1138C77.9589 61.4525 78.6397 61.1276 79.4197 60.9992Z" fill="#00649F"/>
<path d="M31.9499 11.4014L32.0284 11.4502L32.0361 82.2222C30.8162 82.5088 29.6035 83.0155 28.4155 83.4207C26.1859 84.1813 23.9553 84.9373 21.7292 85.7077C17.0252 87.3357 12.2418 88.8083 7.59258 90.5847C7.43105 90.2493 7.5507 83.2224 7.55448 82.2964C7.56529 79.6459 7.55469 76.9942 7.55641 74.3437C7.56423 62.3993 7.56567 50.455 7.56604 38.5105C7.56623 32.198 7.62649 25.8783 7.5545 19.5666L31.9499 11.4014Z" fill="#F3FAFF"/>
</svg>
