<svg width="100" height="100" viewBox="0 0 100 100" fill="none" xmlns="http://www.w3.org/2000/svg">
<path d="M29.5845 1.5206C29.8316 1.50592 30.039 1.50225 30.2798 1.57786C30.9883 1.80034 31.6768 2.17805 32.3243 2.53626C35.4826 4.28333 38.2464 6.97439 40.39 9.84861C40.9085 10.5439 41.4409 11.2507 41.8518 12.0159C42.0155 11.8364 42.1053 11.4766 42.2042 11.2438C42.4174 10.742 42.6483 10.2368 42.8992 9.75285C44.2211 7.20396 45.8324 4.88698 47.8812 2.87208C48.2522 2.50721 48.6335 2.07952 49.0628 1.78211C49.4018 1.54728 49.794 1.43936 50.203 1.52997C50.9745 1.70083 51.7385 2.49116 52.2879 3.02582C54.2109 4.89711 55.8056 6.96612 57.144 9.28995C57.6401 10.1513 58.0548 11.0641 58.5645 11.9165L61.3706 7.96264C63.3131 5.5941 65.7899 3.57158 68.503 2.15727C68.9982 1.89911 69.5445 1.55299 70.1163 1.5151C70.5589 1.48575 71.0546 1.66044 71.3786 1.96182C71.7889 2.34341 71.9142 2.79811 71.923 3.34303C71.9444 4.67138 71.9032 6.00635 71.9007 7.33561C71.8944 10.4778 71.8904 13.6201 71.8988 16.7623C71.905 19.0936 71.9061 21.4234 71.903 23.7548C71.9009 25.3487 71.9589 26.9463 71.8049 28.5353C71.5065 31.6131 70.5858 34.6631 69.382 37.4984C68.9568 38.4997 68.5219 39.4976 68.0026 40.4546C67.7334 40.9508 67.4187 41.4236 67.1274 41.9069C66.4367 43.053 65.7239 44.1535 64.9418 45.2403C64.4833 45.8774 64.022 46.5323 63.4775 47.0995C61.6836 48.9681 59.532 50.4577 57.0306 51.2058C55.3335 51.7135 53.3929 51.876 51.631 51.917L51.716 70.0924C51.8467 69.9481 51.9348 69.6557 52.0399 69.478C52.4249 68.8271 52.8374 68.1867 53.2445 67.5493C55.2485 64.4124 57.9997 61.7162 61.063 59.6192C61.6204 59.2376 62.1686 58.8499 62.753 58.5095C63.6868 57.9658 64.6659 57.5144 65.6534 57.0788C67.5456 56.2439 69.4388 55.5859 71.4596 55.1374C72.7586 54.849 74.0345 54.7075 75.3562 54.5896C75.7717 54.5526 76.2195 54.4664 76.6358 54.5219C76.919 54.5595 77.2049 54.6809 77.4407 54.8406C77.7774 55.0684 78.0478 55.4506 78.1284 55.8527L78.1389 55.9081C78.1783 56.103 78.1991 56.2822 78.1997 56.4807C78.2027 57.5429 78.1097 58.6143 77.9803 59.6678C77.8273 60.9141 77.6313 62.1659 77.3191 63.3837C76.0214 68.4468 73.3505 73.018 69.6938 76.7371C65.7702 80.5911 60.7746 83.2947 55.3956 84.4472C54.1567 84.7128 52.8921 84.8528 51.6321 84.9711C51.6831 85.8477 51.659 86.7334 51.6591 87.6115C51.6592 89.0426 51.6587 90.4737 51.659 91.9048C51.6592 92.8825 51.6442 93.8631 51.6647 94.8405C51.6781 95.4829 51.7353 96.1351 51.7069 96.7772C51.6964 97.0164 51.6137 97.3041 51.49 97.5101C51.2465 97.9159 50.8268 98.2255 50.3663 98.3319C49.9844 98.4208 49.4948 98.3563 49.1665 98.1425C48.8562 97.9403 48.4932 97.5116 48.4158 97.1364L48.4033 97.0697C48.3138 96.6401 48.3368 96.205 48.3371 95.768C48.3376 95.1215 48.3402 94.475 48.3408 93.8284C48.3424 92.0046 48.3419 90.1806 48.3415 88.3568C48.3412 87.1746 48.3767 85.98 48.2889 84.8007C46.2838 84.5949 44.2613 84.3007 42.3241 83.7288C39.2511 82.8216 36.3064 81.4332 33.6931 79.5703C32.9052 79.0086 32.1673 78.3706 31.4449 77.7281C28.9929 75.547 26.8528 72.9604 25.2833 70.0706C23.2199 66.2716 21.9477 61.9742 21.8669 57.6382C21.8565 57.0803 21.7428 56.2936 21.922 55.7633C22.073 55.3164 22.429 54.9593 22.8442 54.748C23.4868 54.4212 24.4014 54.5918 25.0931 54.6695C26.9797 54.8815 28.8576 55.276 30.6701 55.8424C36.7059 57.7285 42.3796 61.5312 46.1186 66.6759C46.956 67.8282 47.6576 69.0573 48.3162 70.3168L48.3395 51.8698C47.7787 51.7594 47.1975 51.7435 46.631 51.6604C44.6238 51.3658 42.6678 50.8532 40.8555 49.918C39.5832 49.2615 38.3865 48.4577 37.3489 47.4681C35.4696 45.6758 34.0914 43.4774 32.8024 41.2429C32.4387 40.6125 32.0515 39.9918 31.7094 39.3496C30.8122 37.6653 30.0591 35.922 29.4725 34.1056C28.8344 32.13 28.3203 30.0232 28.1538 27.9508C28.0446 26.5914 28.1012 25.1969 28.1026 23.833C28.105 21.399 28.1192 18.965 28.1222 16.531C28.126 13.3146 28.1047 10.0985 28.1109 6.88208C28.1134 5.63591 28.0522 4.37111 28.1032 3.12754C28.1142 2.8603 28.1659 2.63104 28.297 2.39542C28.5649 1.91374 29.0695 1.64813 29.5845 1.5206Z" fill="#00649F"/>
<path d="M65.2213 9.52412L68.4227 6.7749L68.4549 6.77833C68.4627 10.6246 68.4403 14.4706 68.4634 18.3168C68.4741 20.1126 68.4911 21.9082 68.4969 23.704C68.501 24.9889 68.5306 26.2792 68.4069 27.5598C68.0709 31.0419 66.9993 34.3938 65.4662 37.5237C64.2266 40.0545 62.6614 42.4688 60.669 44.4726C59.5014 45.6471 58.0987 46.5044 56.5684 47.1175L57.8716 44.9105L58.0567 44.9596C58.539 44.5786 58.8842 44.0124 59.2442 43.5213C60.3567 42.0038 61.399 40.4364 62.2804 38.7712C63.0811 37.2583 63.6835 35.6935 64.1914 34.0611C64.4946 33.0863 64.7782 32.1259 64.9698 31.1214C65.3672 29.0369 65.5028 26.9178 65.5728 24.8007C65.678 21.613 65.587 18.4236 65.5731 15.235C65.5676 13.9671 65.5446 12.698 65.5264 11.4302C65.5206 11.0234 65.517 10.6162 65.495 10.21C65.4866 10.0547 65.497 9.84344 65.4414 9.70051C65.3946 9.58043 65.3304 9.5731 65.2213 9.52412Z" fill="white"/>
<path d="M65.2213 9.52393C65.3304 9.5729 65.3946 9.58023 65.4414 9.70031C65.497 9.84324 65.4866 10.0545 65.495 10.2098C65.517 10.616 65.5206 11.0232 65.5264 11.43C65.5446 12.6978 65.5676 13.9669 65.5731 15.2348C65.587 18.4234 65.678 21.6128 65.5728 24.8005C65.5028 26.9176 65.3672 29.0367 64.9698 31.1212C64.7782 32.1257 64.4946 33.0861 64.1914 34.0609C63.6835 35.6933 63.0811 37.2581 62.2804 38.771C61.399 40.4362 60.3567 42.0036 59.2442 43.5211C58.8842 44.0122 58.539 44.5784 58.0567 44.9594L57.8716 44.9103C58.7935 42.8003 59.554 40.7023 60.0944 38.4596C60.9443 34.9327 61.1317 31.3039 61.1374 27.6918C61.1397 26.276 61.1443 24.8499 61.0349 23.4375C60.8744 21.368 60.5719 19.3239 60.2725 17.2721C61.0577 15.2271 62.1444 13.1601 63.496 11.4305C64.0244 10.7542 64.6211 10.1361 65.2213 9.52393Z" fill="#F3FAFF"/>
<path d="M31.5161 6.66504L31.5657 6.66691C31.6791 6.68751 31.7804 6.78639 31.8722 6.85415C32.1502 7.05946 32.4248 7.26928 32.7015 7.4765C35.6518 9.68699 37.9603 12.3895 39.5759 15.7143C39.7298 16.0311 39.8648 16.358 40.0235 16.6721C40.0782 16.7803 40.2126 16.9668 40.2324 17.0813C40.2646 17.2682 40.1312 17.5986 40.0899 17.7934C39.9882 18.2751 39.9001 18.7604 39.8127 19.245C39.6158 20.3369 39.4185 21.4322 39.2867 22.5342C38.6656 27.726 38.8886 33.1401 40.0852 38.2324C40.7323 40.9865 41.6663 43.6834 43.0726 46.147L43.5906 46.9527C42.2033 46.2433 40.9362 45.3683 39.7799 44.3241C37.9827 42.7016 36.68 40.739 35.4845 38.6533C33.9724 36.0153 32.8357 33.2462 32.1541 30.2767C31.9059 29.1951 31.6865 28.0611 31.6107 26.9531C31.4688 24.8807 31.5849 22.7845 31.5886 20.7082C31.5942 17.4625 31.585 14.2188 31.556 10.9735C31.5433 9.54134 31.591 8.09462 31.5161 6.66504Z" fill="#F3FAFF"/>
<path d="M74.205 58.5693L74.2989 58.6032C74.2434 59.732 74.0306 60.8951 73.7698 61.9941C73.051 65.0253 71.7053 67.9724 69.8632 70.4919C69.1416 71.4789 68.3884 72.4779 67.5507 73.3691C66.6587 74.3181 65.6651 75.1428 64.6345 75.9348C63.4749 76.8259 62.2891 77.6343 60.9962 78.3212C58.3794 79.7117 55.5327 80.5524 52.6124 81.0041L52.5098 80.9478C52.9106 76.4236 54.6399 72.0401 57.372 68.4186C61.4706 62.9854 67.4695 59.5202 74.205 58.5693Z" fill="#009FE0"/>
<path d="M25.6123 58.6184C25.8882 58.5487 26.3386 58.6872 26.6234 58.733C29.2428 59.1541 31.7514 60.1074 34.0926 61.3425C35.7126 62.1971 37.301 63.1894 38.7206 64.3504C42.5605 67.4908 45.4643 71.8978 46.9238 76.6255C47.1183 77.2552 47.9915 80.598 47.7895 80.9817C46.1777 80.7129 44.5688 80.3939 43.0067 79.9086C39.5625 78.8389 36.4771 77.0648 33.7867 74.6716C31.5162 72.652 29.5873 70.1696 28.1981 67.4619C27.6788 66.4497 27.2643 65.3826 26.8775 64.3137C26.2217 62.5007 25.7239 60.5495 25.6123 58.6184Z" fill="#009FE0"/>
<path d="M50.2052 5.98136L50.2649 5.97607C50.6751 6.29397 51.0433 6.79488 51.3772 7.19621C53.5683 9.8297 55.1144 12.8878 56.2157 16.1187C56.7911 17.8065 57.0329 19.5523 57.2526 21.3139C57.8076 25.762 57.7806 30.3133 57.0724 34.7424C56.5932 37.7394 55.7899 40.7286 54.4419 43.4569C53.7542 44.8487 52.886 46.163 51.7686 47.2474C51.293 47.7089 50.7813 48.1476 50.1457 48.3642L50.099 48.3775C49.7754 48.4228 49.3215 48.0439 49.0851 47.8431C46.6655 45.7884 45.3385 42.8536 44.4229 39.8755C43.5572 37.0595 43.0704 34.2257 42.8441 31.2909C42.5933 28.0379 42.7822 24.8553 43.292 21.6377C43.8931 17.843 44.9383 14.0986 46.8162 10.7207C47.4004 9.66983 48.0729 8.58355 48.8069 7.63124C49.2455 7.06219 49.7377 6.52715 50.2052 5.98136Z" fill="#F3FAFF"/>
</svg>
