<svg width="25" height="24" viewBox="0 0 25 24" fill="none" xmlns="http://www.w3.org/2000/svg">
<g id="icon">
<path id="Vector" d="M14.375 16.125H4.25" stroke="#008ECF" stroke-width="2" stroke-linecap="round" stroke-linejoin="round"/>
<path id="Vector_2" d="M20.75 16.125H18.125" stroke="#008ECF" stroke-width="2" stroke-linecap="round" stroke-linejoin="round"/>
<path id="Vector_3" d="M16.25 18C17.2855 18 18.125 17.1605 18.125 16.125C18.125 15.0895 17.2855 14.25 16.25 14.25C15.2145 14.25 14.375 15.0895 14.375 16.125C14.375 17.1605 15.2145 18 16.25 18Z" stroke="#008ECF" stroke-width="2" stroke-linecap="round" stroke-linejoin="round"/>
<path id="Vector_4" d="M8.375 7.875H4.25" stroke="#008ECF" stroke-width="2" stroke-linecap="round" stroke-linejoin="round"/>
<path id="Vector_5" d="M20.75 7.875H12.125" stroke="#008ECF" stroke-width="2" stroke-linecap="round" stroke-linejoin="round"/>
<path id="Vector_6" d="M10.25 9.75C11.2855 9.75 12.125 8.91053 12.125 7.875C12.125 6.83947 11.2855 6 10.25 6C9.21447 6 8.375 6.83947 8.375 7.875C8.375 8.91053 9.21447 9.75 10.25 9.75Z" stroke="#008ECF" stroke-width="2" stroke-linecap="round" stroke-linejoin="round"/>
</g>
</svg>
