<svg width="88" height="40" viewBox="0 0 88 40" fill="none" xmlns="http://www.w3.org/2000/svg">
<path d="M52.6632 24.6036C50.287 29.9002 42.462 30.6354 38.8977 30.6762L39.7854 27.8986C41.8202 27.5719 45.0021 26.2239 46.4906 21.2405C47.5558 17.6596 45.7395 18.0817 43.814 18.0817H41.2466L37.9418 27.9531L36.9858 30.9622L35.8797 34.1891C35.6748 34.7473 35.429 35.0605 34.9101 35.4281C34.3092 35.8502 33.8312 36 33.0528 36H28L34.5414 16.2844C34.7462 15.767 35.2515 15.2224 35.7568 14.8684C36.3167 14.4735 36.822 14.3782 37.3682 14.3782C37.3682 14.3782 41.9704 14.351 41.9157 14.3918C40.4682 15.413 39.4986 16.584 39.1708 18.0953H40.0585C41.0281 16.2572 43.4452 14.4054 46.9822 14.4054C49.5633 14.4054 52.1989 15.1135 53.3324 17.1831L54.261 14.3646H58.6447C59.0134 13.3026 59.0817 13.0439 59.1909 12.7171C59.1909 12.7443 67.6442 9 67.6442 9L65.9235 14.4054H69.9794C70.3618 13.3434 70.4027 13.0711 70.512 12.7443C70.512 12.7716 78.9789 9.02723 78.9789 9.02723L77.2309 14.4191H81L79.8392 18.0545H76.0701C76.0701 18.0545 74.0626 24.1543 73.5983 25.5295C72.9018 27.6127 73.5983 28.0893 75.9882 28.0893C75.9745 28.0212 75.1415 30.6354 75.1415 30.6354C75.1415 30.6354 70.7305 30.649 69.4058 30.6354C67.0433 30.5945 65.186 29.0832 66.0464 26.3737C66.5926 24.6717 68.8323 18.0545 68.8323 18.0545H64.7763C64.7763 18.0545 62.7552 24.1543 62.3046 25.5295C61.6081 27.6127 62.3046 28.0893 64.6944 28.0893C64.6808 28.0212 63.8341 30.6354 63.8341 30.6354H58.1121C55.613 30.6354 53.8513 29.1513 54.7936 26.3464C55.3672 24.6581 57.5249 18.0545 57.5249 18.0545H53.7284C54.1791 19.5794 53.9742 21.7035 52.6632 24.6036Z" fill="white"/>
<path d="M16.0798 0.109506C16.0798 0.109506 15.55 1.54677 15.55 2.9019C15.55 4.28441 16.2123 5.63954 17.2455 7.22738C18.3848 8.9384 19.6564 10.3757 21.458 12.5247C22.3588 13.6061 23.3125 14.9065 24.1735 16.4806C25.7102 19.273 26.346 22.8867 25.8161 25.4327C25.1935 28.4304 24.359 30.3605 21.9878 32.5779C18.557 35.7947 13.5232 36 13.5232 36V34.8913C13.5232 34.8913 17.7489 34.7544 20.3585 31.0996C22.5442 28.0335 22.1733 24.8441 21.8421 23.3384C21.3653 21.162 20.332 19.9711 18.6364 18.0821C16.517 15.7414 14.2253 12.9354 13.9074 9.43118C13.616 6.1597 14.4902 3.84639 16.0401 0L16.0798 0.109506ZM9.92016 0.109506C9.92016 0.109506 10.4368 1.54677 10.4368 2.9019C10.4368 4.28441 9.78769 5.63954 8.74121 7.22738C7.60199 8.9384 6.33032 10.3757 4.54202 12.5247C3.64125 13.6061 2.68749 14.9065 1.82646 16.4806C0.289846 19.273 -0.345992 22.8867 0.183873 25.4327C0.806465 28.4304 1.641 30.3605 4.01215 32.5779C7.44303 35.7947 12.4768 36 12.4768 36V34.8913C12.4768 34.8913 8.25108 34.7544 5.62824 31.0996C3.44255 28.0335 3.81345 24.8441 4.14462 23.3384C4.6215 21.162 5.65474 19.9711 7.35031 18.0821C9.46977 15.7414 11.7614 12.9354 12.0794 9.43118C12.3708 6.1597 11.4965 3.84639 9.94665 0L9.92016 0.109506Z" fill="white"/>
<path fill-rule="evenodd" clip-rule="evenodd" d="M19.0977 19.3518C17.5589 17.8705 15.6692 15.533 14.9133 14.2963C13.577 12.0947 13.2395 10.1514 13.2395 10.1514C13.2395 10.1514 12.8886 12.0947 11.5388 14.2963C10.2835 16.362 8.04279 18.6859 7.3004 19.4333C5.78862 20.969 4.84375 23.089 4.84375 25.4265C4.84375 30.0879 8.59621 33.8795 13.2395 33.8795C17.8829 33.8795 21.6488 30.1014 21.6488 25.4265C21.6488 23.0347 20.677 20.8739 19.0977 19.3518ZM13.2391 32.3444C17.0321 32.3444 20.1096 29.2458 20.1096 25.4271C20.1096 21.6083 17.0321 18.5098 13.2391 18.5098C9.44616 18.5098 6.3686 21.6083 6.3686 25.4271C6.3686 29.2458 9.44616 32.3444 13.2391 32.3444Z" fill="white"/>
</svg>
