<svg width="100" height="100" viewBox="0 0 100 100" fill="none" xmlns="http://www.w3.org/2000/svg">
<path d="M49.3319 3.15174C54.9713 2.862 60.5825 4.63714 65.0861 8.03057C70.639 12.2147 73.6502 18.4286 74.6139 25.2077C75.021 25.4629 75.4728 25.8058 75.761 26.1932C76.1711 26.7445 76.5515 27.463 76.5591 28.1658C76.5826 30.3076 76.5683 32.4506 76.5798 34.5926C76.5837 35.3323 76.5917 36.0724 76.585 36.8121C76.5816 37.1811 76.6079 37.6092 76.5301 37.9705C76.4019 38.5659 76.0045 39.1535 75.5794 39.5805C75.0871 40.0748 74.4828 40.4185 73.7996 40.5719C73.191 40.7085 72.4284 40.6258 71.8001 40.6266C70.5091 40.6285 69.2181 40.6296 67.9271 40.6304L67.9046 40.7118C67.7334 41.2953 67.3805 41.9147 67.1058 42.4591C65.3906 45.8568 62.7354 48.8086 59.399 50.677C59.3624 50.9446 59.4057 51.2607 59.4122 51.5334C59.4241 52.0298 59.4197 52.5268 59.417 53.0233C59.4055 55.137 59.3419 57.2596 59.4177 59.3724C62.8273 59.3856 66.2382 59.3636 69.6481 59.3647C70.5804 59.3651 71.5128 59.3654 72.4452 59.3661C73.2213 59.3666 73.9974 59.3418 74.7628 59.4942C77.0054 59.9408 79.0057 60.897 80.7019 62.4415C82.9221 64.4629 84.2882 67.3896 84.414 70.3828C84.4434 71.0829 84.4099 71.7926 84.4056 72.4937C84.3975 73.7969 84.3947 75.1004 84.3871 76.4037C84.3688 79.538 84.3964 82.6737 84.3915 85.8085C84.3879 88.024 84.3947 90.2403 84.3988 92.4558C84.4006 93.4732 84.4916 94.5403 84.3998 95.5506C84.3681 95.898 84.2447 96.1829 84.0018 96.4336C83.802 96.6398 83.4669 96.8412 83.1763 96.8687C82.8068 96.9037 82.4091 96.8756 82.0372 96.8757C81.3349 96.8757 80.6327 96.876 79.9304 96.8763C77.6241 96.8771 75.3178 96.8776 73.0115 96.8778C65.6257 96.8785 58.2401 96.8771 50.8544 96.8754C42.8854 96.8754 34.9166 96.875 26.9476 96.8751C24.6021 96.8751 22.2566 96.8768 19.9111 96.8778C19.2186 96.8781 18.5261 96.8782 17.8336 96.8773C17.5057 96.8769 17.1389 96.9086 16.8147 96.8678C16.5681 96.8368 16.2906 96.6828 16.1177 96.5085C15.8609 96.2495 15.6964 95.9297 15.6466 95.5677C15.5551 94.9036 15.624 94.1377 15.6238 93.465C15.6231 91.9609 15.6257 90.4567 15.6254 88.9526C15.6243 83.8092 15.6217 78.6658 15.6245 73.5223C15.6251 72.285 15.5599 71.005 15.6662 69.7732C15.894 67.1305 17.1491 64.5443 19.0211 62.6782C20.531 61.1731 22.5507 60.0455 24.6336 59.5813C25.6103 59.3637 26.5572 59.3676 27.5511 59.3624C28.5607 59.3571 29.5703 59.3569 30.5798 59.356C33.9312 59.3528 37.2825 59.3673 40.6338 59.3746L40.6242 50.697C37.4307 48.9998 34.6917 46.0145 33.0716 42.8036C32.9796 42.6213 32.1436 40.6812 32.106 40.6505C32.0867 40.6345 31.6568 40.6405 31.5975 40.6393C30.3599 40.6159 29.12 40.6315 27.882 40.629C27.3208 40.6279 26.6452 40.6972 26.0985 40.5753C25.5982 40.4636 25.0948 40.1916 24.7087 39.8539C23.973 39.2103 23.4856 38.3285 23.4436 37.3408C23.3661 35.5171 23.4355 33.6595 23.4358 31.8328C23.4359 31.0802 23.4363 30.3275 23.4371 29.5749C23.4376 29.0609 23.4145 28.5368 23.4868 28.0269C23.5535 27.557 23.7268 27.1171 23.9581 26.7049C24.229 26.222 24.6254 25.8071 25.0731 25.4847C25.1578 25.4238 25.7472 25.1141 25.7763 25.0642C25.8408 24.954 25.8395 24.4391 25.8646 24.2803C25.9818 23.5391 26.1328 22.7965 26.3071 22.0667C27.3055 17.8879 29.4333 14.0913 32.3442 10.949C33.0871 10.147 33.9029 9.43686 34.7512 8.74931C35.4584 8.1762 36.1753 7.60353 36.9422 7.11138C40.5821 4.77529 45.0091 3.32113 49.3319 3.15174Z" fill="#00649F"/>
<path d="M26.6405 28.1982L31.4542 28.2191C31.0891 30.0517 31.1876 31.9102 31.2015 33.7641C31.2106 34.9579 31.1743 36.1399 31.3056 37.3291L31.2797 37.4772L26.5838 37.4688C26.5485 36.6934 26.5724 35.9077 26.5718 35.1312C26.5709 33.742 26.5703 32.3526 26.5763 30.9633C26.5791 30.3351 26.5826 29.7068 26.5882 29.0786C26.5906 28.8004 26.5504 28.462 26.6405 28.1982Z" fill="#009FE0"/>
<path d="M68.313 28.1984C68.5177 28.1194 68.9967 28.2164 69.2442 28.218C70.6337 28.2268 72.0286 28.1978 73.4168 28.2597L73.4189 37.4758C73.0808 37.5783 72.4979 37.4993 72.1368 37.4986C70.9847 37.4963 69.8326 37.4929 68.6806 37.4893C68.78 36.3146 68.7598 35.1301 68.7587 33.9521C68.7568 31.9918 68.8081 30.1139 68.313 28.1984Z" fill="#009FE0"/>
<path d="M43.7952 52.0753C43.9635 52.0172 44.2475 52.1726 44.4089 52.2312C44.6657 52.3245 44.9303 52.4017 45.193 52.4768C46.1945 52.7629 47.2332 52.9273 48.2685 53.0296C50.9473 53.2942 53.7073 52.9676 56.2486 52.0827L56.248 58.3741L56.2501 59.3826L43.7881 59.3654L43.7952 52.0753Z" fill="white"/>
<path d="M64.8036 27.6853L64.7783 27.5917C64.6967 27.3285 64.3774 27.0504 64.1346 26.9316C63.8581 26.7962 63.5039 26.7546 63.202 26.7075C62.7362 26.6347 62.2684 26.5749 61.8012 26.5125C60.9559 26.3996 60.1098 26.2766 59.2704 26.1256C56.0868 25.5528 52.9905 24.5621 50.0724 23.173C48.9915 22.6583 47.5367 22.1363 47.0626 20.9266C46.8057 20.2712 46.8899 19.4709 47.1708 18.8375C47.4481 18.2121 47.9568 17.6368 48.6085 17.3948C49.4104 17.0969 50.4584 17.2156 51.294 17.3198C53.3262 17.5732 55.3601 18.0315 57.216 18.9188C60.1203 20.3075 62.5687 22.4743 64.3626 25.1372C64.7202 25.6681 65.1429 26.2599 65.3447 26.8702C65.386 26.9949 65.4066 27.124 65.4231 27.2538L65.1436 27.6751C65.008 27.652 64.9373 27.6373 64.8036 27.6853Z" fill="#009FE0"/>
<path d="M59.5552 62.5513C62.5719 62.5063 65.5923 62.5506 68.6096 62.5538C69.6326 62.5547 70.6557 62.5533 71.6787 62.5522C72.6448 62.5511 73.6452 62.5225 74.5938 62.7372C76.1285 63.0844 77.4984 63.8353 78.6312 64.9269C80.2086 66.4469 81.2259 68.5056 81.2572 70.7143L81.2865 93.7455L73.4004 93.7208C73.3094 93.4062 73.3654 92.9449 73.3619 92.6124C73.3519 91.6701 73.3428 90.7278 73.3401 89.7853C73.3247 84.3867 73.4482 78.9914 73.4257 73.5925C73.4222 72.7661 73.4272 71.9396 73.429 71.1131C73.4299 70.6978 73.4849 70.1736 73.3761 69.7751C73.2695 69.3852 72.9707 69.0364 72.6194 68.8424C72.4745 68.7625 72.3089 68.7225 72.1443 68.71C71.7502 68.68 71.333 68.7091 70.937 68.7134C70.178 68.7217 69.4189 68.734 68.66 68.7391C67.4916 68.747 66.323 68.7391 65.1545 68.7384C64.6974 68.7381 64.0063 68.6528 63.579 68.7854C63.4386 68.829 63.315 68.9122 63.196 68.9961C63.0383 68.6415 62.5202 68.2933 62.2615 67.9914C62.0196 67.709 61.8135 67.3976 61.6142 67.0845C61.1277 66.2239 60.679 65.3627 60.2645 64.465C59.9831 63.8553 59.6936 63.2119 59.5552 62.5513Z" fill="white"/>
<path d="M36.9306 69.0059C36.654 68.8623 36.4392 68.7711 36.1215 68.7555C34.3121 68.6667 32.4629 68.7259 30.65 68.7147C30.0022 68.7107 29.3545 68.7052 28.7066 68.7021C28.3704 68.7004 27.9868 68.6663 27.6553 68.7101C27.3916 68.745 27.1265 68.8647 26.9347 69.0498C26.6983 69.2779 26.5546 69.5925 26.5271 69.9188C26.4447 70.8956 26.5147 71.9435 26.5143 72.9281C26.5134 74.8722 26.501 76.8155 26.5109 78.7597C26.5365 83.7526 26.4977 88.745 26.554 93.738L18.7534 93.7093L18.7644 70.5766C18.8306 68.2958 19.9193 66.0907 21.5774 64.5438C22.6118 63.5788 23.9481 62.9422 25.3276 62.6565C26.1528 62.4856 26.9565 62.4964 27.7939 62.503C28.5556 62.5089 29.3167 62.5125 30.0782 62.5089C33.7206 62.4913 37.3713 62.4987 41.0122 62.6121C40.5031 63.4012 40.133 64.2684 39.718 65.108C39.31 65.9336 38.8264 66.7875 38.2959 67.542C38.098 67.8234 37.8806 68.1062 37.6336 68.3465C37.4072 68.5668 37.1302 68.7607 36.9306 69.0059Z" fill="white"/>
<path d="M49.362 6.37503C54.2063 6.03972 59.1862 7.47406 63.0608 10.4117C67.5686 13.8291 70.4989 19.396 71.253 24.9447L68.102 24.9705C67.9312 24.8101 67.8106 24.5588 67.6834 24.3585C67.4486 23.989 67.2088 23.622 66.9621 23.2604C66.3999 22.4361 65.7654 21.6425 65.0992 20.899C62.3764 17.8595 58.536 15.6846 54.5716 14.8008C53.3931 14.538 52.1906 14.4136 50.9869 14.345C49.0652 14.2251 46.9643 14.4577 45.106 14.9455C43.6511 15.3275 42.2281 15.8977 40.8839 16.5687C39.3922 17.3132 37.9839 18.1693 36.7021 19.2392C34.7943 20.8317 33.287 22.7777 32.0311 24.9111L29.0352 24.901C29.4254 20.7678 31.3284 16.6827 34.1185 13.617C38.0936 9.2493 43.4469 6.64698 49.362 6.37503Z" fill="#F3FAFF"/>
<path d="M65.1434 27.6752C65.188 27.7076 65.2165 27.7371 65.2399 27.7879C65.3713 28.0716 65.4239 28.4362 65.4662 28.7447C65.5527 29.3748 65.5827 29.9804 65.5949 30.6152C65.6142 31.6197 65.6172 32.6244 65.6206 33.6291C65.6242 34.7183 65.6944 35.865 65.5609 36.945C65.4338 37.9739 65.1362 39.0183 64.771 39.9864C63.3382 43.7841 60.205 46.9255 56.5364 48.5876C52.8026 50.2794 48.1429 50.3394 44.3228 48.8897C40.4727 47.4287 37.31 44.624 35.625 40.8378C35.1276 39.7202 34.7293 38.4923 34.5415 37.2826C34.3731 36.1985 34.4105 35.0934 34.4053 33.9985C34.3974 32.315 34.4355 30.6562 34.5889 28.9785C34.6736 28.0502 34.7109 27.2479 35.0522 26.3672C35.3934 25.487 35.9596 24.7166 36.5482 23.9867C38.5509 21.5034 40.9887 19.7659 43.901 18.498C43.8826 18.6745 43.8161 18.8509 43.7746 19.0235C43.4463 20.3883 43.7605 21.8181 44.4942 22.9975C44.7897 23.4724 45.1411 23.8879 45.5758 24.242C46.2106 24.7594 46.9968 25.1265 47.7202 25.5031C50.765 27.0883 53.8886 28.194 57.2391 28.9497C58.1809 29.1621 63.4062 30.2621 64.0379 29.8214C64.639 29.402 64.6937 28.3605 64.8033 27.6854C64.937 27.6374 65.0077 27.6521 65.1434 27.6752Z" fill="white"/>
<path d="M42.7836 62.5499C43.9118 62.4561 45.0725 62.5053 46.2048 62.5034C48.1933 62.5 50.182 62.4973 52.1705 62.5103C53.227 62.5172 54.2836 62.5261 55.3401 62.5372C55.9253 62.5435 56.5574 62.5077 57.135 62.5971L58.9845 62.6053L59.5551 62.5513C59.6935 63.2119 59.9831 63.8553 60.2645 64.465C60.679 65.3627 61.1277 66.2239 61.6141 67.0845C61.8134 67.3976 62.0196 67.709 62.2615 67.9913C62.5202 68.2933 63.0382 68.6414 63.196 68.9961C62.7699 69.4429 62.436 69.9517 62.4524 70.5922L62.4574 70.7214C62.563 70.9546 62.7461 71.2143 62.9218 71.3991C63.1155 71.6026 63.3546 71.7816 63.6346 71.8384C63.8729 71.8868 64.1392 71.8652 64.3819 71.8658C64.8106 71.8666 65.2393 71.8649 65.6679 71.8655C67.1676 71.8675 68.6671 71.8754 70.1666 71.8806L70.1718 93.7451L29.8855 93.7404C29.9058 89.1404 29.9344 84.5381 29.9169 79.9382C29.9092 77.9591 29.898 75.9801 29.8861 74.0011C29.8832 73.5118 29.8803 73.0225 29.8765 72.5331C29.875 72.3314 29.8367 72.0632 29.9008 71.8736C31.1236 71.8763 32.3466 71.8787 33.5694 71.8785C34.18 71.8784 34.7906 71.8781 35.4011 71.8707C35.8647 71.8651 36.4413 71.8962 36.8631 71.6822C37.2737 71.4737 37.5683 71.048 37.6947 70.617L37.7151 70.5456C37.6654 69.8348 37.4337 69.4812 36.9307 69.0061C37.1303 68.7609 37.4074 68.567 37.6338 68.3467C37.8807 68.1064 38.0982 67.8236 38.2961 67.5422C38.8265 66.7877 39.3101 65.9338 39.7181 65.1082C40.1332 64.2686 40.5033 63.4014 41.0124 62.6123C41.5376 62.6956 42.2478 62.5921 42.7836 62.5499Z" fill="#009FE0"/>
<path d="M41.0123 62.6121C41.5375 62.6954 42.2478 62.592 42.7835 62.5498C42.6469 63.1197 42.4053 63.685 42.1833 64.2266C41.3892 66.1644 40.3348 67.9951 39.034 69.6388C38.8493 69.8723 38.6151 70.2453 38.3838 70.4215C38.2599 70.5159 37.8718 70.5511 37.715 70.5455C37.6653 69.8347 37.4336 69.4811 36.9307 69.006C37.1303 68.7607 37.4073 68.5669 37.6337 68.3466C37.8807 68.1063 38.0981 67.8234 38.296 67.5421C38.8265 66.7876 39.3101 65.9337 39.7181 65.1081C40.1331 64.2685 40.5032 63.4013 41.0123 62.6121Z" fill="#00649F"/>
<path d="M58.9844 62.6053L59.555 62.5513C59.6934 63.2118 59.9829 63.8553 60.2644 64.4649C60.6788 65.3627 61.1275 66.2238 61.614 67.0845C61.5122 67.005 61.3739 66.9184 61.3069 66.8068L61.2795 66.7479C61.2228 66.6322 61.1154 66.3367 61.0106 66.2838L60.9374 66.3326L60.8647 66.2843L60.8153 66.3326L60.7421 66.3575L60.8153 66.504L60.8517 66.5528L60.8886 66.6505C60.9472 66.7461 60.9583 66.7709 60.974 66.8865C60.7577 66.7121 60.5412 66.0858 60.4118 65.8239C60.0283 65.0477 59.5912 64.2736 59.2577 63.4759C59.1381 63.1896 59.0596 62.9053 58.9844 62.6053Z" fill="#F3FAFF"/>
<path d="M49.1575 65.6456C52.5722 65.4473 55.769 66.3841 58.4724 68.5095C61.2245 70.6732 63.0302 73.8512 63.4322 77.3341C63.8752 81.1746 62.7486 84.7717 60.3471 87.7888C58.1614 90.535 54.9748 92.0731 51.5254 92.471L51.2307 92.4962C47.8187 92.8208 44.4851 91.7236 41.8548 89.5527C39.008 87.2032 37.3751 83.6203 37.0447 79.9912C36.721 76.4382 37.7986 73.1267 40.0803 70.3949C42.3234 67.7095 45.6781 65.9617 49.1575 65.6456Z" fill="#00649F"/>
<path d="M49.6377 68.8674C51.9288 68.5892 54.4516 69.4325 56.26 70.8094C58.2975 72.3607 59.7903 74.7097 60.1117 77.2782C60.3527 79.204 60.0437 81.3817 59.2598 83.1576C58.8217 84.15 58.1894 85.1187 57.5207 85.9735C55.8799 88.0713 53.4795 89.1303 50.8905 89.4408C50.2115 89.4758 49.5028 89.4843 48.828 89.3967C47.012 89.1609 45.323 88.3327 43.9284 87.1607C41.7978 85.37 40.5224 82.7963 40.2966 80.0353C40.0773 77.3539 40.927 74.4271 42.6929 72.3743C44.5132 70.2583 46.8697 69.0818 49.6377 68.8674Z" fill="#F3FAFF"/>
<path d="M49.5469 71.9915C51.3092 71.8536 53.0381 72.2455 54.4676 73.3119C56.1563 74.5716 57.2532 76.3664 57.5368 78.4551C57.7887 80.3103 57.2506 82.4471 56.1145 83.9376C54.8872 85.5478 52.8894 86.6436 50.8904 86.9099C49.0665 87.0185 47.3853 86.6566 45.9076 85.5474C44.3391 84.3702 43.1009 82.578 42.8362 80.6036C42.5681 78.6032 42.9925 76.5623 44.2378 74.9497C45.5735 73.2198 47.402 72.2702 49.5469 71.9915Z" fill="#00649F"/>
<path d="M50.1236 75.1627C51.0776 75.1212 51.8826 75.2911 52.6669 75.8652C53.5706 76.5267 54.2015 77.4903 54.3735 78.5994C54.5645 79.8306 54.2283 81.1646 53.4764 82.1618C52.7091 83.1795 51.6842 83.7194 50.4384 83.8919C49.5165 83.98 48.6862 83.8139 47.9292 83.2569C46.9251 82.5182 46.2071 81.4144 46.0357 80.1704C45.8763 79.0118 46.184 77.7955 46.9045 76.8731C47.7018 75.8523 48.8585 75.3101 50.1236 75.1627Z" fill="white"/>
<path d="M58.9843 62.6053L59.5549 62.5513C59.6933 63.2118 59.9828 63.8553 60.2643 64.4649C60.6787 65.3627 61.1274 66.2238 61.6139 67.0845C61.8132 67.3976 62.0193 67.709 62.2612 67.9913C62.5199 68.2933 63.038 68.6414 63.1957 68.9961C62.7696 69.4429 62.4357 69.9517 62.4521 70.5922L62.4571 70.7214C62.2033 70.5998 61.977 70.4333 61.7298 70.2991C61.5647 70.2096 61.3786 70.1708 61.218 70.0722C61.0288 69.9562 60.8639 69.7839 60.7013 69.6338C60.3222 69.2839 59.9837 68.9623 59.698 68.5262C59.2633 67.8622 58.9567 67.0182 58.6326 66.293C58.243 65.4212 57.8428 64.5476 57.5043 63.6547C57.3681 63.2952 57.2241 62.9766 57.1348 62.5971L58.9843 62.6053Z" fill="#00649F"/>
</svg>
